<?xml version="1.0" encoding="UTF-8"?>
<svg version="1.1" xmlns="http://www.w3.org/2000/svg" width="128" height="128">
<path d="M0 0 C2.19482932 0.90351838 4.39016289 1.80581258 6.5859375 2.70703125 C7.73288086 3.18092285 8.87982422 3.65481445 10.06152344 4.14306641 C16.38808049 6.72872499 22.75808294 9.20329796 29.125 11.6875 C31.49906875 12.61493672 33.87279685 13.54324617 36.24609375 14.47265625 C37.24954834 14.86461182 38.25300293 15.25656738 39.28686523 15.66040039 C41.6875 16.625 41.6875 16.625 43.6875 17.625 C43.60293482 19.25825005 43.51831836 20.89149746 43.4335022 22.5247345 C43.35652155 24.00892103 43.27985267 25.49312375 43.20346069 26.9773407 C42.9860891 31.1808169 42.76062981 35.38364054 42.52148438 39.5859375 C42.07786575 47.47986925 41.66030701 55.36269238 41.50997925 63.26847839 C41.44637681 66.4614434 41.34762673 69.65288009 41.24554443 72.84481812 C41.20707029 74.35621282 41.18591097 75.86815453 41.18267822 77.3800354 C41.14853769 89.08584742 41.14853769 89.08584742 37.71484375 92.703125 C35.10826763 94.28583476 32.50012569 95.452234 29.6875 96.625 C28.01111526 97.60022721 26.35041358 98.60294434 24.70703125 99.6328125 C18.73523525 103.21612324 12.67242908 106.63472875 6.61108398 110.06347656 C2.57198907 112.36050409 -1.44251659 114.66630095 -5.3515625 117.1796875 C-5.93639404 117.55496582 -6.52122559 117.93024414 -7.1237793 118.31689453 C-8.63113292 119.29765877 -10.12666699 120.29652402 -11.62109375 121.296875 C-14.87711484 122.9036198 -16.70516269 122.93830945 -20.3125 122.625 C-23.14575195 121.32739258 -23.14575195 121.32739258 -26.05078125 119.51953125 C-27.11876953 118.86533203 -28.18675781 118.21113281 -29.28710938 117.53710938 C-30.38861328 116.84423828 -31.49011719 116.15136719 -32.625 115.4375 C-34.80780902 114.08857308 -36.99138973 112.74089403 -39.17578125 111.39453125 C-40.22717285 110.74339355 -41.27856445 110.09225586 -42.36181641 109.42138672 C-45.57233827 107.46680953 -48.82727322 105.62564638 -52.12573242 103.82495117 C-56.2259068 101.57505087 -60.2648757 99.21769675 -64.3125 96.875 C-65.59833984 96.13443359 -65.59833984 96.13443359 -66.91015625 95.37890625 C-68.13025391 94.67314453 -68.13025391 94.67314453 -69.375 93.953125 C-70.10847656 93.5293457 -70.84195313 93.10556641 -71.59765625 92.66894531 C-73.3125 91.625 -73.3125 91.625 -74.3125 90.625 C-74.52528144 88.57353777 -74.67206633 86.51520551 -74.79321289 84.45629883 C-74.8323732 83.81230133 -74.87153351 83.16830383 -74.91188049 82.50479126 C-75.04085813 80.36411553 -75.16308585 78.22311113 -75.28515625 76.08203125 C-75.37305049 74.59565651 -75.46130705 73.10930315 -75.5499115 71.62297058 C-75.73511267 68.50002798 -75.91721476 65.37692549 -76.09692383 62.25366211 C-76.32678099 58.25988121 -76.56219995 54.26645439 -76.79970646 50.27312183 C-76.98224522 47.19934394 -77.16282082 44.12545337 -77.34271049 41.05151939 C-77.4288661 39.57997197 -77.51538572 38.10844581 -77.60228157 36.63694191 C-77.72374188 34.5716203 -77.84281296 32.50617466 -77.96118164 30.44067383 C-78.02922501 29.2667659 -78.09726837 28.09285797 -78.16737366 26.88337708 C-78.30506691 23.79188781 -78.33889329 20.71903053 -78.3125 17.625 C-77.10078125 17.1403125 -75.8890625 16.655625 -74.640625 16.15625 C-73.84124512 15.83648193 -73.04186523 15.51671387 -72.21826172 15.18725586 C-70.42305906 14.4692078 -68.62781044 13.75127464 -66.83251953 13.03344727 C-61.44153133 10.87770794 -56.05190587 8.71863866 -50.66430664 6.55444336 C-48.18597228 5.56188816 -45.70438329 4.57778619 -43.22265625 3.59375 C-39.9200676 2.28085449 -36.64132529 0.92267219 -33.37109375 -0.46875 C-31.78907296 -1.12502522 -30.20704213 -1.78127623 -28.625 -2.4375 C-27.91907715 -2.74888916 -27.2131543 -3.06027832 -26.48583984 -3.38110352 C-16.92289928 -7.287652 -9.07184612 -3.83214177 0 0 Z " fill="#4F3C2C" transform="translate(81.3125,5.375)"/>
<path d="M0 0 C2.19482932 0.90351838 4.39016289 1.80581258 6.5859375 2.70703125 C7.73288086 3.18092285 8.87982422 3.65481445 10.06152344 4.14306641 C16.38808049 6.72872499 22.75808294 9.20329796 29.125 11.6875 C31.49906875 12.61493672 33.87279685 13.54324617 36.24609375 14.47265625 C37.24954834 14.86461182 38.25300293 15.25656738 39.28686523 15.66040039 C41.6875 16.625 41.6875 16.625 43.6875 17.625 C43.11374998 28.96571842 42.48330276 40.2975097 41.6875 51.625 C40.3675 51.955 39.0475 52.285 37.6875 52.625 C37.6875 49.985 37.6875 47.345 37.6875 44.625 C36.6975 45.12 36.6975 45.12 35.6875 45.625 C35.5225 46.45 35.3575 47.275 35.1875 48.125 C35.0225 48.95 34.8575 49.775 34.6875 50.625 C33.6975 51.12 33.6975 51.12 32.6875 51.625 C32.2234375 52.8625 32.2234375 52.8625 31.75 54.125 C31.399375 54.95 31.04875 55.775 30.6875 56.625 C29.2025 57.12 29.2025 57.12 27.6875 57.625 C27.6875 53.335 27.6875 49.045 27.6875 44.625 C26.6975 45.12 26.6975 45.12 25.6875 45.625 C25.44903097 47.8872358 25.44903097 47.8872358 25.4375 50.5 C25.23046875 53.234375 25.23046875 53.234375 24.6875 55.625 C21.8759235 57.65890641 20.16378604 58.625 16.6875 58.625 C16.3575 57.635 16.0275 56.645 15.6875 55.625 C15.0275 55.625 14.3675 55.625 13.6875 55.625 C13.6875 58.925 13.6875 62.225 13.6875 65.625 C12.3675 65.955 11.0475 66.285 9.6875 66.625 C9.3575 65.635 9.0275 64.645 8.6875 63.625 C7.6975 64.12 7.6975 64.12 6.6875 64.625 C6.31625 66.0790625 6.31625 66.0790625 5.9375 67.5625 C5.525 68.573125 5.1125 69.58375 4.6875 70.625 C2.7075 71.285 0.7275 71.945 -1.3125 72.625 C-1.6425 68.335 -1.9725 64.045 -2.3125 59.625 C-3.3025 60.12 -3.3025 60.12 -4.3125 60.625 C-4.55096903 62.8872358 -4.55096903 62.8872358 -4.5625 65.5 C-4.76953125 68.234375 -4.76953125 68.234375 -5.3125 70.625 C-8.1240765 72.65890641 -9.83621396 73.625 -13.3125 73.625 C-13.3125 75.605 -13.3125 77.585 -13.3125 79.625 C-15.2925 80.12 -15.2925 80.12 -17.3125 80.625 C-17.6425 69.405 -17.9725 58.185 -18.3125 46.625 C-20.643125 45.531875 -22.97375 44.43875 -25.375 43.3125 C-32.63616628 39.89841952 -39.8844041 36.45748188 -47.125 33 C-48.11258301 32.52844482 -49.10016602 32.05688965 -50.11767578 31.57104492 C-55.19046878 29.14205422 -60.23739485 26.67571807 -65.25 24.125 C-69.52059191 21.96156691 -73.78921672 20.1907519 -78.3125 18.625 C-74.5160469 15.22057195 -70.03902144 13.90541193 -65.3125 12.25 C-58.91225323 9.95416099 -52.60700967 7.54848441 -46.3515625 4.87890625 C-41.94520197 3.06085775 -37.47920609 1.4105492 -33.00512695 -0.23266602 C-32.04932739 -0.58542603 -32.04932739 -0.58542603 -31.07421875 -0.9453125 C-30.12748291 -1.28997559 -30.12748291 -1.28997559 -29.16162109 -1.64160156 C-27.35832579 -2.35682457 -25.62291005 -3.23620814 -23.89453125 -4.1171875 C-15.43434198 -7.08794099 -7.86315884 -3.32156642 0 0 Z " fill="#52972A" transform="translate(81.3125,5.375)"/>
<path d="M0 0 C0.66 0 1.32 0 2 0 C2.495 5.94 2.495 5.94 3 12 C5.7839183 10.60804085 5.97898997 8.84424221 7 6 C7.66 6 8.32 6 9 6 C9 4.35 9 2.7 9 1 C9.99 0.67 10.98 0.34 12 0 C12.495 3.465 12.495 3.465 13 7 C13.99 7 14.98 7 16 7 C15.96107478 12.44724052 15.8574607 17.88805377 15.69482422 23.33300781 C15.64855231 25.18323694 15.61969274 27.03398954 15.60888672 28.88476562 C15.50181967 44.20358978 15.50181967 44.20358978 12.01855469 48.37011719 C9.4049582 49.93827508 6.86203459 50.96235299 4 52 C2.31876619 52.96684372 0.65786175 53.96992663 -0.98046875 55.0078125 C-6.04477566 58.04659435 -11.17279082 60.96616366 -16.3125 63.875 C-23.52909263 67.96700099 -30.63209913 72.17190652 -37.6015625 76.671875 C-40 78 -40 78 -43 78 C-43 64.14 -43 50.28 -43 36 C-41.02 35.505 -41.02 35.505 -39 35 C-39 33.02 -39 31.04 -39 29 C-33.25 26 -33.25 26 -31 26 C-31 22.7 -31 19.4 -31 16 C-29.68 15.34 -28.36 14.68 -27 14 C-27 18.62 -27 23.24 -27 28 C-20.89879756 25.79594583 -20.89879756 25.79594583 -19.8125 21.875 C-19.544375 20.92625 -19.27625 19.9775 -19 19 C-18.01 18.67 -17.02 18.34 -16 18 C-16 19.32 -16 20.64 -16 22 C-14.68 21.67 -13.36 21.34 -12 21 C-12 17.7 -12 14.4 -12 11 C-11.01 10.67 -10.02 10.34 -9 10 C-9 11.32 -9 12.64 -9 14 C-8.05125 13.505 -7.1025 13.01 -6.125 12.5 C-3 11 -3 11 -1 11 C-1.01160156 10.28972656 -1.02320313 9.57945313 -1.03515625 8.84765625 C-1.04417969 7.92855469 -1.05320313 7.00945313 -1.0625 6.0625 C-1.07410156 5.14597656 -1.08570313 4.22945312 -1.09765625 3.28515625 C-1 1 -1 1 0 0 Z " fill="#805B3F" transform="translate(107,50)"/>
<path d="M0 0 C9.21287993 2.30321998 17.68471374 6.67015044 26.1875 10.8125 C28.39679412 11.88221558 30.60642855 12.95122862 32.81640625 14.01953125 C33.87617676 14.53209473 34.93594727 15.0446582 36.02783203 15.57275391 C40.96228795 17.94229796 45.93377966 20.22870711 50.9140625 22.5 C54.3581154 24.17407128 57.67518251 26.10010429 61 28 C61 39.22 61 50.44 61 62 C59.68 61.67 58.36 61.34 57 61 C56.94392578 59.95199219 56.94392578 59.95199219 56.88671875 58.8828125 C56.82097656 57.97273438 56.75523438 57.06265625 56.6875 56.125 C56.62949219 55.22007813 56.57148437 54.31515625 56.51171875 53.3828125 C56.2117961 50.63778399 56.2117961 50.63778399 53 49 C53 50.65 53 52.3 53 54 C51.68 53.34 50.36 52.68 49 52 C49 53.32 49 54.64 49 56 C47.68 55.67 46.36 55.34 45 55 C45 53.02 45 51.04 45 49 C44.113125 48.731875 43.22625 48.46375 42.3125 48.1875 C39.14629095 47.05244393 36.63502393 46.092519 34 44 C33.6875 41.3125 33.6875 41.3125 34 39 C33.34 39 32.68 39 32 39 C31.34 41.31 30.68 43.62 30 46 C28.515 45.505 28.515 45.505 27 45 C27 43.35 27 41.7 27 40 C25.68 39.67 24.36 39.34 23 39 C22.67 40.32 22.34 41.64 22 43 C20.02 42.01 18.04 41.02 16 40 C16 35.05 16 30.1 16 25 C14.68 24.67 13.36 24.34 12 24 C12 26.64 12 29.28 12 32 C9.83125748 31.49396008 8.00032373 31.00016187 6 30 C5.67 31.32 5.34 32.64 5 34 C4.01 33.67 3.02 33.34 2 33 C1.34 22.11 0.68 11.22 0 0 Z " fill="#36641C" transform="translate(3,24)"/>
<path d="M0 0 C-0.33 4.62 -0.66 9.24 -1 14 C0.32 13.67 1.64 13.34 3 13 C3 14.32 3 15.64 3 17 C2.01 17.66 1.02 18.32 0 19 C-0.357148 21.33404054 -0.357148 21.33404054 -0.3125 23.9375 C-0.4921875 26.64453125 -0.4921875 26.64453125 -1 29 C-3.8115765 31.03390641 -5.52371396 32 -9 32 C-9.495 30.515 -9.495 30.515 -10 29 C-10.66 29 -11.32 29 -12 29 C-12 32.3 -12 35.6 -12 39 C-13.98 39.495 -13.98 39.495 -16 40 C-16.33 39.01 -16.66 38.02 -17 37 C-17.99 37.495 -17.99 37.495 -19 38 C-19.2475 38.969375 -19.495 39.93875 -19.75 40.9375 C-20.1625 41.948125 -20.575 42.95875 -21 44 C-22.98 44.66 -24.96 45.32 -27 46 C-27.33 41.71 -27.66 37.42 -28 33 C-28.99 33.495 -28.99 33.495 -30 34 C-30.23846903 36.2622358 -30.23846903 36.2622358 -30.25 38.875 C-30.45703125 41.609375 -30.45703125 41.609375 -31 44 C-33.8115765 46.03390641 -35.52371396 47 -39 47 C-39 48.98 -39 50.96 -39 53 C-40.98 53.495 -40.98 53.495 -43 54 C-43.07408587 49.90666095 -43.1285704 45.81358067 -43.16479492 41.71972656 C-43.17989358 40.32675378 -43.20037444 38.93382862 -43.22631836 37.54101562 C-43.26265122 35.54057115 -43.27811192 33.53978173 -43.29296875 31.5390625 C-43.3086792 30.33459473 -43.32438965 29.13012695 -43.34057617 27.88916016 C-43.22818604 26.9357373 -43.1157959 25.98231445 -43 25 C-42.01 24.34 -41.02 23.68 -40 23 C-39.67 21.989375 -39.34 20.97875 -39 19.9375 C-38.67 18.968125 -38.34 17.99875 -38 17 C-37.01 16.67 -36.02 16.34 -35 16 C-34.8125 18.3125 -34.8125 18.3125 -35 21 C-35.495 21.4125 -35.99 21.825 -36.5 22.25 C-38.79175846 24.92371821 -38.2897352 27.24558145 -38.1875 30.6875 C-38.16042969 31.86699219 -38.13335937 33.04648438 -38.10546875 34.26171875 C-38.07066406 35.16535156 -38.03585938 36.06898437 -38 37 C-37.01 36.505 -37.01 36.505 -36 36 C-35.7525 35.05125 -35.505 34.1025 -35.25 33.125 C-34 30 -34 30 -30.875 28.125 C-29.451875 27.568125 -29.451875 27.568125 -28 27 C-28 25.68 -28 24.36 -28 23 C-28.99 23.33 -29.98 23.66 -31 24 C-31 22.35 -31 20.7 -31 19 C-29.68 18.67 -28.36 18.34 -27 18 C-27 16.02 -27 14.04 -27 12 C-27.94875 11.71125 -28.8975 11.4225 -29.875 11.125 C-33 10 -33 10 -35 8 C-31.4775709 5.85217738 -29.71957526 4.89533451 -25.5625 5.5 C-21.15059487 6.11921476 -18.99031842 4.80693664 -15 3 C-14.05060547 3.26103516 -14.05060547 3.26103516 -13.08203125 3.52734375 C-10.25213868 4.16977715 -8.94035463 3.33659753 -6.375 2.0625 C-2.16610169 0 -2.16610169 0 0 0 Z " fill="#5BA02C" transform="translate(107,32)"/>
<path d="M0 0 C0.66 0 1.32 0 2 0 C2.495 3.465 2.495 3.465 3 7 C3.99 7 4.98 7 6 7 C5.96107478 12.44724052 5.8574607 17.88805377 5.69482422 23.33300781 C5.64855231 25.18323694 5.61969274 27.03398954 5.60888672 28.88476562 C5.50124121 44.28635376 5.50124121 44.28635376 1.81201172 48.49755859 C-0.76677461 50.04748551 -3.15389632 51.04983586 -6 52 C-7.39227302 52.76087906 -8.7701114 53.54938629 -10.125 54.375 C-11.07375 54.91125 -12.0225 55.4475 -13 56 C-13.33 53.36 -13.66 50.72 -14 48 C-14.66 48 -15.32 48 -16 48 C-16.33 45.69 -16.66 43.38 -17 41 C-20.96 42.98 -20.96 42.98 -25 45 C-25.495 43.515 -25.495 43.515 -26 42 C-27.485 42.495 -27.485 42.495 -29 43 C-29.73323796 45.01508358 -29.73323796 45.01508358 -30 47 C-28.515 46.505 -28.515 46.505 -27 46 C-27 50.29 -27 54.58 -27 59 C-29.31 60.32 -31.62 61.64 -34 63 C-34 60.36 -34 57.72 -34 55 C-35.98 55.495 -35.98 55.495 -38 56 C-38.08096803 54.54257537 -38.13917774 53.08387193 -38.1875 51.625 C-38.22230469 50.81289062 -38.25710937 50.00078125 -38.29296875 49.1640625 C-38.19628906 48.44992188 -38.09960938 47.73578125 -38 47 C-37.01 46.34 -36.02 45.68 -35 45 C-34.95952187 42.77081143 -35.01614 40.53939686 -35.125 38.3125 C-34.97265625 34.51171875 -34.97265625 34.51171875 -34 31 C-29.95062334 27.51105267 -24.51430735 24 -19 24 C-18.67 24.99 -18.34 25.98 -18 27 C-17.01 26.67 -16.02 26.34 -15 26 C-15 27.32 -15 28.64 -15 30 C-12.64214682 29.10664203 -12.64214682 29.10664203 -11.875 25.9375 C-11.58625 24.968125 -11.2975 23.99875 -11 23 C-10.34 23 -9.68 23 -9 23 C-9.061875 22.21625 -9.12375 21.4325 -9.1875 20.625 C-9.0946875 19.325625 -9.0946875 19.325625 -9 18 C-8.01 17.34 -7.02 16.68 -6 16 C-5.31767386 13.6758266 -4.99247551 11.38851242 -4.625 8.99609375 C-4.41875 8.33738281 -4.2125 7.67867187 -4 7 C-3.01 6.67 -2.02 6.34 -1 6 C-1.020625 5.195625 -1.04125 4.39125 -1.0625 3.5625 C-1 1 -1 1 0 0 Z " fill="#845F45" transform="translate(117,50)"/>
<path d="M0 0 C0.66 0 1.32 0 2 0 C2.495 5.94 2.495 5.94 3 12 C3.66 12 4.32 12 5 12 C4.67 13.65 4.34 15.3 4 17 C3.01 17.33 2.02 17.66 1 18 C1 19.65 1 21.3 1 23 C0.34 23.33 -0.32 23.66 -1 24 C-1.72693904 25.97888961 -2.39816251 27.97954558 -3 30 C-3.66 30 -4.32 30 -5 30 C-5 28.68 -5 27.36 -5 26 C-6.98 26.99 -6.98 26.99 -9 28 C-9 26.68 -9 25.36 -9 24 C-14.61 26.97 -20.22 29.94 -26 33 C-28 29 -28 29 -28 25 C-28.99 25 -29.98 25 -31 25 C-31 22.03 -31 19.06 -31 16 C-29.68 15.34 -28.36 14.68 -27 14 C-27 18.62 -27 23.24 -27 28 C-20.89879756 25.79594583 -20.89879756 25.79594583 -19.8125 21.875 C-19.544375 20.92625 -19.27625 19.9775 -19 19 C-18.01 18.67 -17.02 18.34 -16 18 C-16 19.32 -16 20.64 -16 22 C-14.68 21.67 -13.36 21.34 -12 21 C-12 17.7 -12 14.4 -12 11 C-11.01 10.67 -10.02 10.34 -9 10 C-9 11.32 -9 12.64 -9 14 C-7.576875 13.2575 -7.576875 13.2575 -6.125 12.5 C-3 11 -3 11 -1 11 C-1.01160156 10.28972656 -1.02320312 9.57945313 -1.03515625 8.84765625 C-1.04417969 7.92855469 -1.05320312 7.00945313 -1.0625 6.0625 C-1.07410156 5.14597656 -1.08570312 4.22945312 -1.09765625 3.28515625 C-1 1 -1 1 0 0 Z " fill="#754E2D" transform="translate(107,50)"/>
<path d="M0 0 C0.99 0.33 1.98 0.66 3 1 C3.06058594 1.76699219 3.12117188 2.53398438 3.18359375 3.32421875 C3.75182704 6.1776609 3.75182704 6.1776609 6.28515625 7.58203125 C7.65994141 8.19111328 7.65994141 8.19111328 9.0625 8.8125 C10.44115234 9.44091797 10.44115234 9.44091797 11.84765625 10.08203125 C12.55792969 10.38496094 13.26820312 10.68789062 14 11 C14 12.98 14 14.96 14 17 C15.32 17.33 16.64 17.66 18 18 C18 16.68 18 15.36 18 14 C18.99 14.33 19.98 14.66 21 15 C21.33 13.68 21.66 12.36 22 11 C23.32 11.66 24.64 12.32 26 13 C26 15.97 26 18.94 26 22 C20.25 20.125 20.25 20.125 18 19 C17.67 20.32 17.34 21.64 17 23 C16.34 22.67 15.68 22.34 15 22 C14.67 22.99 14.34 23.98 14 25 C13.34 25 12.68 25 12 25 C11.67 25.99 11.34 26.98 11 28 C10.01 27.67 9.02 27.34 8 27 C8 25.35 8 23.7 8 22 C6.68 21.34 5.36 20.68 4 20 C4 18.35 4 16.7 4 15 C3.13375 14.731875 2.2675 14.46375 1.375 14.1875 C-1.91791964 13.02888013 -4.91127875 11.61790161 -8 10 C-8 7.03 -8 4.06 -8 1 C-6.68 1.33 -5.36 1.66 -4 2 C-3.87625 2.804375 -3.7525 3.60875 -3.625 4.4375 C-3.315625 5.7059375 -3.315625 5.7059375 -3 7 C-2.34 7.33 -1.68 7.66 -1 8 C-0.67 5.36 -0.34 2.72 0 0 Z " fill="#473726" transform="translate(34,62)"/>
<path d="M0 0 C0.66 0 1.32 0 2 0 C2.33 2.31 2.66 4.62 3 7 C3.99 7 4.98 7 6 7 C5.91327254 9.79322218 5.80644643 12.58312528 5.6875 15.375 C5.65366211 16.56609375 5.65366211 16.56609375 5.61914062 17.78125 C5.52214925 19.86215581 5.27005175 21.93441332 5 24 C4.01 24.66 3.02 25.32 2 26 C1.278678 28.15505582 1.278678 28.15505582 0.9375 30.5625 C0.52734375 33.00390625 0.52734375 33.00390625 0 35 C-0.99 35.495 -0.99 35.495 -2 36 C-2.495 34.515 -2.495 34.515 -3 33 C-3.99 33 -4.98 33 -6 33 C-6.33 32.34 -6.66 31.68 -7 31 C-7.66 31 -8.32 31 -9 31 C-8.625 28.5625 -8.625 28.5625 -8 26 C-7.34 25.67 -6.68 25.34 -6 25 C-5.731875 24.21625 -5.46375 23.4325 -5.1875 22.625 C-3.70652498 19.35126575 -2.02851014 18.78604444 1 17 C1.87822312 14.91466367 1.87822312 14.91466367 2 13 C1.01 13.33 0.02 13.66 -1 14 C-1 12.68 -1 11.36 -1 10 C-1.99 10.33 -2.98 10.66 -4 11 C-3.67 9.35 -3.34 7.7 -3 6 C-2.34 6 -1.68 6 -1 6 C-1.020625 5.195625 -1.04125 4.39125 -1.0625 3.5625 C-1 1 -1 1 0 0 Z " fill="#815B41" transform="translate(117,50)"/>
<path d="M0 0 C0.66 0 1.32 0 2 0 C2.03534974 3.58509047 1.9935115 7.16526427 1.9375 10.75 C1.94845703 11.76578125 1.95941406 12.7815625 1.97070312 13.828125 C1.80068856 21.21161488 1.80068856 21.21161488 -0.62060547 23.59570312 C-2.55859375 24.703125 -2.55859375 24.703125 -6 26 C-6.33 22.04 -6.66 18.08 -7 14 C-7.66 14 -8.32 14 -9 14 C-8.67 12.35 -8.34 10.7 -8 9 C-7.01 8.67 -6.02 8.34 -5 8 C-4.67 8.99 -4.34 9.98 -4 11 C-3.87882812 10.37351562 -3.75765625 9.74703125 -3.6328125 9.1015625 C-3.38144531 7.87566406 -3.38144531 7.87566406 -3.125 6.625 C-2.96257812 5.81289062 -2.80015625 5.00078125 -2.6328125 4.1640625 C-2 2 -2 2 0 0 Z " fill="#916B51" transform="translate(120,74)"/>
<path d="M0 0 C0.66 0.66 1.32 1.32 2 2 C1.67 2.66 1.34 3.32 1 4 C2.32 4.33 3.64 4.66 5 5 C5 5.66 5 6.32 5 7 C3.01432292 7.22786458 1.02864583 7.45572917 -0.95703125 7.68359375 C-3.19396393 7.97170735 -3.19396393 7.97170735 -6 9 C-6 9.66 -6 10.32 -6 11 C-8.31 10.67 -10.62 10.34 -13 10 C-14.53191489 3.87234043 -14.53191489 3.87234043 -13 1 C-8.03579168 -1.92012254 -5.22163331 -2.55009999 0 0 Z " fill="#4D8F28" transform="translate(61,4)"/>
<path d="M0 0 C3.76794682 1.47610288 7.39104458 3.1719123 11 5 C8.41991383 7.79759344 6.81353959 8.52330755 3 9 C-0.93878291 9 -4.2701171 8.2432943 -8 7 C-8.33 6.01 -8.66 5.02 -9 4 C-10.99665314 2.31461399 -10.99665314 2.31461399 -13 1 C-8.44331996 -1.61983618 -5.00816716 -1.20678727 0 0 Z " fill="#58A531" transform="translate(70,1)"/>
<path d="M0 0 C1.32 0.66 2.64 1.32 4 2 C4 4.97 4 7.94 4 11 C-1.75 9.125 -1.75 9.125 -4 8 C-4.33 9.32 -4.66 10.64 -5 12 C-5.66 11.67 -6.32 11.34 -7 11 C-7.33 11.99 -7.66 12.98 -8 14 C-8.66 14 -9.32 14 -10 14 C-10.33 14.99 -10.66 15.98 -11 17 C-11.99 16.67 -12.98 16.34 -14 16 C-14.33 13.03 -14.66 10.06 -15 7 C-13.68 7.33 -12.36 7.66 -11 8 C-10.67 6.68 -10.34 5.36 -10 4 C-8.02 4.99 -6.04 5.98 -4 7 C-4 5.68 -4 4.36 -4 3 C-3.01 3.33 -2.02 3.66 -1 4 C-0.67 2.68 -0.34 1.36 0 0 Z " fill="#47321E" transform="translate(56,73)"/>
<path d="M0 0 C0.33 1.32 0.66 2.64 1 4 C3.31 3.01 5.62 2.02 8 1 C8 5.29 8 9.58 8 14 C5.69 15.32 3.38 16.64 1 18 C1 15.36 1 12.72 1 10 C-0.32 10.33 -1.64 10.66 -3 11 C-3.08096803 9.54257537 -3.13917774 8.08387193 -3.1875 6.625 C-3.22230469 5.81289062 -3.25710937 5.00078125 -3.29296875 4.1640625 C-3.19628906 3.44992188 -3.09960938 2.73578125 -3 2 C-2.01 1.34 -1.02 0.68 0 0 Z " fill="#835D44" transform="translate(82,95)"/>
<path d="M0 0 C0 4.62 0 9.24 0 14 C6.10120244 11.79594583 6.10120244 11.79594583 7.1875 7.875 C7.455625 6.92625 7.72375 5.9775 8 5 C8.99 4.67 9.98 4.34 11 4 C11 5.32 11 6.64 11 8 C11.99 7.67 12.98 7.34 14 7 C14 8.65 14 10.3 14 12 C7.07 15.465 7.07 15.465 0 19 C-0.33 16.36 -0.66 13.72 -1 11 C-1.99 11 -2.98 11 -4 11 C-4.08096803 9.54257537 -4.13917774 8.08387193 -4.1875 6.625 C-4.22230469 5.81289062 -4.25710937 5.00078125 -4.29296875 4.1640625 C-4.19628906 3.44992188 -4.09960938 2.73578125 -4 2 C-1 0 -1 0 0 0 Z " fill="#625532" transform="translate(80,64)"/>
<path d="M0 0 C0.33 0.99 0.66 1.98 1 3 C1.66 3 2.32 3 3 3 C2.625 5.4375 2.625 5.4375 2 8 C1.01 8.495 1.01 8.495 0 9 C-0.33 9.99 -0.66 10.98 -1 12 C-2 15 -2 15 -4 16 C-4.33 14.68 -4.66 13.36 -5 12 C-5.99 12.33 -6.98 12.66 -8 13 C-8 11.68 -8 10.36 -8 9 C-9.32 9.33 -10.64 9.66 -12 10 C-12 8.35 -12 6.7 -12 5 C-10.37750059 4.16180842 -8.75191503 3.3295884 -7.125 2.5 C-6.22007813 2.0359375 -5.31515625 1.571875 -4.3828125 1.09375 C-2 0 -2 0 0 0 Z " fill="#774E2B" transform="translate(76,81)"/>
<path d="M0 0 C1.32 0.66 2.64 1.32 4 2 C4 9.92 4 17.84 4 26 C2.68 25.67 1.36 25.34 0 25 C-0.03738281 24.30132812 -0.07476562 23.60265625 -0.11328125 22.8828125 C-0.17902344 21.97273438 -0.24476562 21.06265625 -0.3125 20.125 C-0.37050781 19.22007813 -0.42851563 18.31515625 -0.48828125 17.3828125 C-0.7882039 14.63778399 -0.7882039 14.63778399 -4 13 C-4.1875 10.375 -4.1875 10.375 -4 8 C-3.01 8.33 -2.02 8.66 -1 9 C-0.67 6.03 -0.34 3.06 0 0 Z " fill="#3B6E21" transform="translate(60,60)"/>
<path d="M0 0 C1.32 0.33 2.64 0.66 4 1 C4.07347656 1.95712891 4.07347656 1.95712891 4.1484375 2.93359375 C4.22320313 3.75988281 4.29796875 4.58617188 4.375 5.4375 C4.44460937 6.26121094 4.51421875 7.08492188 4.5859375 7.93359375 C4.72257812 8.61550781 4.85921875 9.29742187 5 10 C5.66 10.33 6.32 10.66 7 11 C7 10.01 7 9.02 7 8 C8.32 8.33 9.64 8.66 11 9 C11 11.97 11 14.94 11 18 C6.9861764 16.78651845 3.30899391 15.62773046 0 13 C-0.125 10.4375 -0.125 10.4375 0 8 C-0.99 7.34 -1.98 6.68 -3 6 C-3 4.68 -3 3.36 -3 2 C-2.34 2 -1.68 2 -1 2 C-0.67 1.34 -0.34 0.68 0 0 Z " fill="#513F2D" transform="translate(27,95)"/>
<path d="M0 0 C0.33 1.32 0.66 2.64 1 4 C2.32 3.67 3.64 3.34 5 3 C5 3.99 5 4.98 5 6 C5.99 6 6.98 6 8 6 C7.67 7.65 7.34 9.3 7 11 C6.01 11.33 5.02 11.66 4 12 C3.814375 13.2065625 3.814375 13.2065625 3.625 14.4375 C3.41875 15.283125 3.2125 16.12875 3 17 C2.34 17.33 1.68 17.66 1 18 C1 16.68 1 15.36 1 14 C-0.32 14.33 -1.64 14.66 -3 15 C-2.88658363 12.68690295 -2.75896193 10.37449815 -2.625 8.0625 C-2.55539063 6.77472656 -2.48578125 5.48695312 -2.4140625 4.16015625 C-2.27742188 3.11730469 -2.14078125 2.07445312 -2 1 C-1.34 0.67 -0.68 0.34 0 0 Z " fill="#77553A" transform="translate(97,60)"/>
<path d="M0 0 C-0.33 7.92 -0.66 15.84 -1 24 C-2.32 24.33 -3.64 24.66 -5 25 C-5 22.36 -5 19.72 -5 17 C-5.99 17 -6.98 17 -8 17 C-7.625 14.5625 -7.625 14.5625 -7 12 C-6.34 11.67 -5.68 11.34 -5 11 C-4.64562795 8.70779595 -4.55663389 6.44461018 -4.44140625 4.12890625 C-3.93130674 1.66869179 -2.90070752 0 0 0 Z " fill="#63AF33" transform="translate(124,33)"/>
<path d="M0 0 C-0.33 4.95 -0.66 9.9 -1 15 C-1.99 15.33 -2.98 15.66 -4 16 C-4 13.03 -4 10.06 -4 7 C-4.62648438 7.28875 -5.25296875 7.5775 -5.8984375 7.875 C-6.71570313 8.24625 -7.53296875 8.6175 -8.375 9 C-9.59316406 9.556875 -9.59316406 9.556875 -10.8359375 10.125 C-13 11 -13 11 -15 11 C-15 9.35 -15 7.7 -15 6 C-12.87717331 4.99539469 -10.75166979 3.99644398 -8.625 3 C-7.44164063 2.443125 -6.25828125 1.88625 -5.0390625 1.3125 C-2 0 -2 0 0 0 Z " fill="#5CA82E" transform="translate(107,32)"/>
<path d="M0 0 C1.85870955 3.13657237 2.47138954 5.3619819 2 9 C0.13671875 10.80078125 0.13671875 10.80078125 -2.3125 12.3125 C-3.11300781 12.82425781 -3.91351563 13.33601563 -4.73828125 13.86328125 C-7 15 -7 15 -10 15 C-10 12.03 -10 9.06 -10 6 C-8.68 5.34 -7.36 4.68 -6 4 C-6 5.32 -6 6.64 -6 8 C-2.64029566 5.76019711 -2.31304575 4.65777032 -1 1 C-0.67 0.67 -0.34 0.34 0 0 Z " fill="#8D694D" transform="translate(74,113)"/>
<path d="M0 0 C0 2.64 0 5.28 0 8 C0.99 7.67 1.98 7.34 3 7 C3 9.97 3 12.94 3 16 C1.68 16.33 0.36 16.66 -1 17 C-0.67 14.36 -0.34 11.72 0 9 C-3.465 10.485 -3.465 10.485 -7 12 C-7.52672751 6.7327249 -7.52672751 6.7327249 -7 4 C-2.3 0 -2.3 0 0 0 Z " fill="#784F2A" transform="translate(101,90)"/>
<path d="M0 0 C0.1875 2.3125 0.1875 2.3125 0 5 C-0.48984375 5.40476562 -0.9796875 5.80953125 -1.484375 6.2265625 C-4.37788013 9.6122618 -3.42998533 14.57705251 -3.49609375 18.84765625 C-3.66238281 19.88792969 -3.82867187 20.92820312 -4 22 C-6.03515625 23.43359375 -6.03515625 23.43359375 -8 24 C-8.08076963 21.54101345 -8.14037143 19.08466258 -8.1875 16.625 C-8.21263672 15.92632812 -8.23777344 15.22765625 -8.26367188 14.5078125 C-8.29296875 12.4765625 -8.29296875 12.4765625 -8 9 C-7.01 8.34 -6.02 7.68 -5 7 C-4.30899447 5.00827818 -3.64097297 3.00838196 -3 1 C-1 0 -1 0 0 0 Z " fill="#61AD30" transform="translate(72,48)"/>
<path d="M0 0 C0.66 0 1.32 0 2 0 C2 0.99 2 1.98 2 3 C2.99 2.67 3.98 2.34 5 2 C5 4.97 5 7.94 5 11 C2.69 12.32 0.38 13.64 -2 15 C-2.05386629 12.87527424 -2.09273071 10.75016348 -2.125 8.625 C-2.14820312 7.44164063 -2.17140625 6.25828125 -2.1953125 5.0390625 C-2 2 -2 2 0 0 Z " fill="#94725D" transform="translate(109,89)"/>
<path d="M0 0 C0.33 1.32 0.66 2.64 1 4 C2.32 3.67 3.64 3.34 5 3 C5 4.65 5 6.3 5 8 C3.68 8.33 2.36 8.66 1 9 C1 10.98 1 12.96 1 15 C-0.32 15.33 -1.64 15.66 -3 16 C-3.08075665 13.70890403 -3.13907731 11.41700733 -3.1875 9.125 C-3.22230469 7.84882812 -3.25710937 6.57265625 -3.29296875 5.2578125 C-3.19628906 4.18273437 -3.09960938 3.10765625 -3 2 C-2.01 1.34 -1.02 0.68 0 0 Z " fill="#549028" transform="translate(67,70)"/>
<path d="M0 0 C0.33 0.99 0.66 1.98 1 3 C1.99 2.67 2.98 2.34 4 2 C4.1875 4.375 4.1875 4.375 4 7 C3.01 7.66 2.02 8.32 1 9 C0.7834375 10.2375 0.7834375 10.2375 0.5625 11.5 C0.376875 12.325 0.19125 13.15 0 14 C-1.98 14.99 -1.98 14.99 -4 16 C-4 11.05 -4 6.1 -4 1 C-2 0 -2 0 0 0 Z " fill="#836140" transform="translate(68,90)"/>
<path d="M0 0 C0.52493438 5.24934383 0.52493438 5.24934383 0 8 C-4.6 12 -4.6 12 -8 12 C-8.2878026 8.94929243 -8.44198649 6.04000462 -8 3 C-5.16755403 0.47376441 -3.78435224 0 0 0 Z " fill="#8B674F" transform="translate(91,78)"/>
<path d="M0 0 C1.32 0.66 2.64 1.32 4 2 C4 6.29 4 10.58 4 15 C0.29511572 14.07377893 -1.16604069 13.32789515 -4 11 C-3.67 10.01 -3.34 9.02 -3 8 C-2.01 8 -1.02 8 0 8 C0 5.36 0 2.72 0 0 Z " fill="#4C3928" transform="translate(60,113)"/>
<path d="M0 0 C0.66 0.66 1.32 1.32 2 2 C1.34 2.66 0.68 3.32 0 4 C0 4.66 0 5.32 0 6 C-3.63 6 -7.26 6 -11 6 C-11.33 4.35 -11.66 2.7 -12 1 C-7.68024478 -1.22532845 -4.70081591 -1.06433568 0 0 Z " fill="#54A02F" transform="translate(24,22)"/>
<path d="M0 0 C0 4.29 0 8.58 0 13 C-2.31 14.32 -4.62 15.64 -7 17 C-7 15.35 -7 13.7 -7 12 C-6.01 11.67 -5.02 11.34 -4 11 C-4.020625 9.906875 -4.04125 8.81375 -4.0625 7.6875 C-4 4 -4 4 -3 1 C-1 0 -1 0 0 0 Z " fill="#805B3C" transform="translate(121,83)"/>
<path d="M0 0 C6.875 2.75 6.875 2.75 8 5 C8.04022391 7.3329866 8.04320247 9.66706666 8 12 C5.125 11.375 5.125 11.375 2 10 C0.27251133 6.38797823 0 4.02768404 0 0 Z " fill="#45301A" transform="translate(34,94)"/>
<path d="M0 0 C-0.75 4.75 -0.75 4.75 -3 7 C-3.309375 7.825 -3.61875 8.65 -3.9375 9.5 C-5 12 -5 12 -8 14 C-8 10.37 -8 6.74 -8 3 C-2.25 0 -2.25 0 0 0 Z " fill="#4F9127" transform="translate(88,56)"/>
<path d="M0 0 C1.32 0.66 2.64 1.32 4 2 C4 4.97 4 7.94 4 11 C-1.75 9.125 -1.75 9.125 -4 8 C-4 6.35 -4 4.7 -4 3 C-3.01 3.33 -2.02 3.66 -1 4 C-0.67 2.68 -0.34 1.36 0 0 Z " fill="#423423" transform="translate(56,73)"/>
<path d="M0 0 C0 2.97 0 5.94 0 9 C-1.32 9.33 -2.64 9.66 -4 10 C-4.33 9.01 -4.66 8.02 -5 7 C-5.99 7.33 -6.98 7.66 -8 8 C-8.3125 5.6875 -8.3125 5.6875 -8 3 C-5.13896577 0.75756777 -3.65923696 0 0 0 Z " fill="#59982C" transform="translate(95,62)"/>
<path d="M0 0 C1.32 0.33 2.64 0.66 4 1 C5.125 4 5.125 4 6 7 C6.66 7.33 7.32 7.66 8 8 C8 9.65 8 11.3 8 13 C5.36 11.68 2.72 10.36 0 9 C0 6.03 0 3.06 0 0 Z " fill="#5A4739" transform="translate(52,81)"/>
<path d="M0 0 C0.33 1.32 0.66 2.64 1 4 C1.99 3.67 2.98 3.34 4 3 C4 4.65 4 6.3 4 8 C0.535 9.485 0.535 9.485 -3 11 C-3.08096803 9.54257537 -3.13917774 8.08387193 -3.1875 6.625 C-3.22230469 5.81289062 -3.25710937 5.00078125 -3.29296875 4.1640625 C-3.19628906 3.44992188 -3.09960938 2.73578125 -3 2 C-2.01 1.34 -1.02 0.68 0 0 Z " fill="#62472C" transform="translate(90,68)"/>
<path d="M0 0 C1.32 0.33 2.64 0.66 4 1 C4.12375 1.804375 4.2475 2.60875 4.375 3.4375 C4.684375 4.7059375 4.684375 4.7059375 5 6 C5.66 6.33 6.32 6.66 7 7 C7.625 9.5625 7.625 9.5625 8 12 C7.236875 11.690625 6.47375 11.38125 5.6875 11.0625 C3.81210323 10.32106407 1.91315348 9.63771783 0 9 C0 6.03 0 3.06 0 0 Z " fill="#3A2D18" transform="translate(26,63)"/>
<path d="M0 0 C0.33 0.99 0.66 1.98 1 3 C1.66 3 2.32 3 3 3 C2.67 4.65 2.34 6.3 2 8 C0.02 8.66 -1.96 9.32 -4 10 C-4 7.03 -4 4.06 -4 1 C-2 0 -2 0 0 0 Z " fill="#9A765B" transform="translate(116,60)"/>
<path d="M0 0 C0 2.64 0 5.28 0 8 C-2.31 9.32 -4.62 10.64 -7 12 C-7 10.35 -7 8.7 -7 7 C-6.34 6.67 -5.68 6.34 -5 6 C-4.835 5.175 -4.67 4.35 -4.5 3.5 C-4.335 2.675 -4.17 1.85 -4 1 C-2 0 -2 0 0 0 Z " fill="#987259" transform="translate(90,101)"/>
<path d="M0 0 C1.32 0.33 2.64 0.66 4 1 C4 3.97 4 6.94 4 10 C0.535 8.02 0.535 8.02 -3 6 C-3 4.68 -3 3.36 -3 2 C-2.34 2 -1.68 2 -1 2 C-0.67 1.34 -0.34 0.68 0 0 Z " fill="#5E4C3D" transform="translate(27,95)"/>
<path d="M0 0 C3.465 1.485 3.465 1.485 7 3 C7 4.32 7 5.64 7 7 C5.02 6.34 3.04 5.68 1 5 C1 5.99 1 6.98 1 8 C-0.32 7.67 -1.64 7.34 -3 7 C-3 5.68 -3 4.36 -3 3 C-2.01 3 -1.02 3 0 3 C0 2.01 0 1.02 0 0 Z " fill="#46301C" transform="translate(13,78)"/>
<path d="M0 0 C-0.99 1.485 -0.99 1.485 -2 3 C-1.67 3.66 -1.34 4.32 -1 5 C-1.66 5.66 -2.32 6.32 -3 7 C-7.455 5.02 -7.455 5.02 -12 3 C-7.74687289 -0.37316977 -5.33599971 -1.29794588 0 0 Z " fill="#4D8D27" transform="translate(15,21)"/>
<path d="M0 0 C1.03125 0.391875 2.0625 0.78375 3.125 1.1875 C4.3625 1.1875 5.6 1.1875 6.875 1.1875 C7.9475 1.1875 9.02 1.1875 10.125 1.1875 C10.785 1.8475 11.445 2.5075 12.125 3.1875 C7.06957059 4.80523741 2.19497969 4.45499492 -2.875 3.1875 C-3.865 3.5175 -4.855 3.8475 -5.875 4.1875 C-6.535 3.5275 -7.195 2.8675 -7.875 2.1875 C-3.66132479 -1.03472222 -3.66132479 -1.03472222 0 0 Z " fill="#4A8927" transform="translate(80.875,14.8125)"/>
<path d="M0 0 C0.99 0.66 1.98 1.32 3 2 C-4.21225383 5.25601751 -4.21225383 5.25601751 -7.5 4.1875 C-7.995 3.795625 -8.49 3.40375 -9 3 C-8.67 2.01 -8.34 1.02 -8 0 C-4.65649854 -1.11450049 -3.33342063 -0.91669067 0 0 Z " fill="#5AA533" transform="translate(42,17)"/>
<path d="M0 0 C1.875 0.125 1.875 0.125 4 1 C5.53855569 4.56297106 6.32709239 8.1868569 7 12 C5.68 11.67 4.36 11.34 3 11 C2.87625 10.195625 2.7525 9.39125 2.625 8.5625 C2.315625 7.2940625 2.315625 7.2940625 2 6 C1.34 5.67 0.68 5.34 0 5 C0 3.35 0 1.7 0 0 Z " fill="#5D524B" transform="translate(34,76)"/>
<path d="M0 0 C1.32 0.33 2.64 0.66 4 1 C4 4.3 4 7.6 4 11 C2.68 10.34 1.36 9.68 0 9 C0 6.03 0 3.06 0 0 Z " fill="#30591A" transform="translate(60,51)"/>
<path d="M0 0 C1.98 0.495 1.98 0.495 4 1 C4 4.3 4 7.6 4 11 C1.525 10.01 1.525 10.01 -1 9 C-0.67 6.03 -0.34 3.06 0 0 Z " fill="#3B3722" transform="translate(15,48)"/>
<path d="M0 0 C1.32 0.33 2.64 0.66 4 1 C4 4.3 4 7.6 4 11 C2.68 10.34 1.36 9.68 0 9 C0 6.03 0 3.06 0 0 Z " fill="#594537" transform="translate(60,104)"/>
<path d="M0 0 C0 3.3 0 6.6 0 10 C-1.32 10.33 -2.64 10.66 -4 11 C-4.08096803 9.54257537 -4.13917774 8.08387193 -4.1875 6.625 C-4.22230469 5.81289062 -4.25710937 5.00078125 -4.29296875 4.1640625 C-4.19628906 3.44992188 -4.09960938 2.73578125 -4 2 C-1 0 -1 0 0 0 Z " fill="#5CA22A" transform="translate(68,75)"/>
<path d="M0 0 C1.32 0.33 2.64 0.66 4 1 C4 2.65 4 4.3 4 6 C3.34 6 2.68 6 2 6 C1.67 6.99 1.34 7.98 1 9 C-0.32 8.34 -1.64 7.68 -3 7 C-3 5.68 -3 4.36 -3 3 C-2.34 3 -1.68 3 -1 3 C-0.67 2.01 -0.34 1.02 0 0 Z " fill="#503E30" transform="translate(44,72)"/>
<path d="M0 0 C3.465 1.98 3.465 1.98 7 4 C7 5.65 7 7.3 7 9 C4.69 8.01 2.38 7.02 0 6 C0 4.02 0 2.04 0 0 Z " fill="#615751" transform="translate(49,115)"/>
<path d="M0 0 C0.66 0 1.32 0 2 0 C2 2.64 2 5.28 2 8 C0.02 8.99 -1.96 9.98 -4 11 C-3.67 9.35 -3.34 7.7 -3 6 C-2.34 6 -1.68 6 -1 6 C-1.020625 5.195625 -1.04125 4.39125 -1.0625 3.5625 C-1 1 -1 1 0 0 Z " fill="#614028" transform="translate(117,50)"/>
<path d="M0 0 C5.875 2.875 5.875 2.875 7 4 C7.04063832 5.66617115 7.042721 7.33388095 7 9 C3.535 7.02 3.535 7.02 0 5 C0 3.35 0 1.7 0 0 Z " fill="#493522" transform="translate(38,109)"/>
<path d="M0 0 C1.98 0.99 1.98 0.99 4 2 C4 4.97 4 7.94 4 11 C2.68 10.34 1.36 9.68 0 9 C0 6.03 0 3.06 0 0 Z " fill="#463018" transform="translate(60,113)"/>
<path d="M0 0 C0.33 1.32 0.66 2.64 1 4 C1.99 3.67 2.98 3.34 4 3 C4 5.97 4 8.94 4 12 C2.68 12.33 1.36 12.66 0 13 C0 8.71 0 4.42 0 0 Z " fill="#7C5537" transform="translate(100,94)"/>
<path d="M0 0 C1.32 0.33 2.64 0.66 4 1 C4 3.97 4 6.94 4 10 C2.68 9.34 1.36 8.68 0 8 C0 5.36 0 2.72 0 0 Z " fill="#5E544D" transform="translate(20,82)"/>
<path d="M0 0 C-0.125 2.3125 -0.125 2.3125 -1 5 C-4.0625 6.8125 -4.0625 6.8125 -7 8 C-7.3125 5.6875 -7.3125 5.6875 -7 3 C-4.6167054 1.18116991 -3.04181663 0 0 0 Z " fill="#794F2D" transform="translate(86,112)"/>
<path d="M0 0 C0 2.97 0 5.94 0 9 C-1.98 9.99 -1.98 9.99 -4 11 C-4 7.7 -4 4.4 -4 1 C-2 0 -2 0 0 0 Z " fill="#825E44" transform="translate(101,99)"/>
<path d="M0 0 C-0.33 1.65 -0.66 3.3 -1 5 C-2.98 5.66 -4.96 6.32 -7 7 C-7 5.35 -7 3.7 -7 2 C-4.35261084 0.5393715 -3.10551666 0 0 0 Z " fill="#65B035" transform="translate(99,36)"/>
<path d="M0 0 C0.66 0 1.32 0 2 0 C2 2.97 2 5.94 2 9 C0.02 9.99 0.02 9.99 -2 11 C-1.85957123 9.35369672 -1.71250671 7.70795821 -1.5625 6.0625 C-1.48128906 5.14597656 -1.40007812 4.22945313 -1.31640625 3.28515625 C-1 1 -1 1 0 0 Z " fill="#967056" transform="translate(95,101)"/>
<path d="M0 0 C3.465 1.98 3.465 1.98 7 4 C7 5.32 7 6.64 7 8 C1.125 6.125 1.125 6.125 0 5 C-0.04063832 3.33382885 -0.042721 1.66611905 0 0 Z " fill="#4A341F" transform="translate(21,99)"/>
<path d="M0 0 C0.33 0.99 0.66 1.98 1 3 C1.66 3 2.32 3 3 3 C2.67 4.65 2.34 6.3 2 8 C1.34 8 0.68 8 0 8 C0 7.01 0 6.02 0 5 C-1.32 5.33 -2.64 5.66 -4 6 C-4 4.35 -4 2.7 -4 1 C-2 0 -2 0 0 0 Z " fill="#9F8678" transform="translate(98,74)"/>
<path d="M0 0 C0.99 0 1.98 0 3 0 C3 2.97 3 5.94 3 9 C1.68 9.33 0.36 9.66 -1 10 C-0.67 6.7 -0.34 3.4 0 0 Z " fill="#835F48" transform="translate(95,65)"/>
<path d="M0 0 C-0.33 1.65 -0.66 3.3 -1 5 C-2.98 5.66 -4.96 6.32 -7 7 C-6.75 4.625 -6.75 4.625 -6 2 C-3.84898936 0.54286376 -2.59713506 0 0 0 Z " fill="#794F2D" transform="translate(79,98)"/>
<path d="M0 0 C0.99 0.33 1.98 0.66 3 1 C3 3.97 3 6.94 3 10 C2.01 9.67 1.02 9.34 0 9 C-0.84454356 5.62182575 -1.10844919 3.32534757 0 0 Z " fill="#5B4739" transform="translate(35,103)"/>
<path d="M0 0 C0.33 2.97 0.66 5.94 1 9 C-0.32 9.33 -1.64 9.66 -3 10 C-3.6875 6.6875 -3.6875 6.6875 -4 3 C-1.87096774 0 -1.87096774 0 0 0 Z " fill="#7E593E" transform="translate(94,85)"/>
<path d="M0 0 C0.33 1.32 0.66 2.64 1 4 C-1.31 5.32 -3.62 6.64 -6 8 C-6 6.35 -6 4.7 -6 3 C-4.02 2.01 -2.04 1.02 0 0 Z " fill="#6F4E30" transform="translate(86,75)"/>
<path d="M0 0 C0.99 0.33 1.98 0.66 3 1 C3 3.97 3 6.94 3 10 C2.01 9.67 1.02 9.34 0 9 C0 6.03 0 3.06 0 0 Z " fill="#37281A" transform="translate(45,63)"/>
<path d="M0 0 C0.66 0 1.32 0 2 0 C2 2.97 2 5.94 2 9 C1.01 9.33 0.02 9.66 -1 10 C-1.02689216 8.52093108 -1.04634621 7.04172517 -1.0625 5.5625 C-1.07410156 4.73878906 -1.08570312 3.91507813 -1.09765625 3.06640625 C-1 1 -1 1 0 0 Z " fill="#5B4027" transform="translate(107,50)"/>
<path d="M0 0 C2.95662966 0.22743305 4.55033688 0.61235938 6.8125 2.5625 C7.204375 3.036875 7.59625 3.51125 8 4 C4.61608307 5.06351675 3.4195366 5.21442982 0.1875 3.5625 C-0.534375 3.046875 -1.25625 2.53125 -2 2 C-1.34 1.34 -0.68 0.68 0 0 Z " fill="#58A431" transform="translate(28,32)"/>
<path d="M0 0 C0.71929687 0.29003906 1.43859375 0.58007812 2.1796875 0.87890625 C2.90414062 1.16636719 3.62859375 1.45382813 4.375 1.75 C4.92929688 1.97816406 5.48359375 2.20632813 6.0546875 2.44140625 C5.3946875 3.10140625 4.7346875 3.76140625 4.0546875 4.44140625 C1.1120912 4.1348858 -1.29073558 3.76869471 -3.9453125 2.44140625 C-3.9453125 1.78140625 -3.9453125 1.12140625 -3.9453125 0.44140625 C-1.9453125 -0.55859375 -1.9453125 -0.55859375 0 0 Z " fill="#488825" transform="translate(90.9453125,9.55859375)"/>
<path d="M0 0 C0 2.64 0 5.28 0 8 C-0.99 8.33 -1.98 8.66 -3 9 C-3 6.36 -3 3.72 -3 1 C-1 0 -1 0 0 0 Z " fill="#764D27" transform="translate(121,83)"/>
<path d="M0 0 C0.66 0 1.32 0 2 0 C2 0.99 2 1.98 2 3 C2.99 2.67 3.98 2.34 5 2 C4.67 3.65 4.34 5.3 4 7 C3.34 7 2.68 7 2 7 C2 6.01 2 5.02 2 4 C1.01 4.33 0.02 4.66 -1 5 C-0.67 3.35 -0.34 1.7 0 0 Z " fill="#784E2A" transform="translate(113,70)"/>
<path d="M0 0 C2.02045442 0.60183749 4.02111039 1.27306096 6 2 C6.33 2.66 6.66 3.32 7 4 C3.18510326 5.46726798 0.70988378 4.43336419 -3 3 C-2.01 2.01 -1.02 1.02 0 0 Z " fill="#4B8D28" transform="translate(71,2)"/>
<path d="M0 0 C1.98 0.495 1.98 0.495 4 1 C4 2.65 4 4.3 4 6 C2.68 6.33 1.36 6.66 0 7 C-0.93423645 3.98968256 -1.04449911 3.13349732 0 0 Z " fill="#584437" transform="translate(52,104)"/>
<path d="M0 0 C0.33 0 0.66 0 1 0 C1 2.64 1 5.28 1 8 C0.01 8.33 -0.98 8.66 -2 9 C-2.125 5.625 -2.125 5.625 -2 2 C-1.34 1.34 -0.68 0.68 0 0 Z " fill="#977059" transform="translate(89,79)"/>
<path d="M0 0 C0.66 0 1.32 0 2 0 C2 1.32 2 2.64 2 4 C2.99 3.67 3.98 3.34 5 3 C5 4.65 5 6.3 5 8 C3.68 8.33 2.36 8.66 1 9 C0.67 6.03 0.34 3.06 0 0 Z " fill="#5C9628" transform="translate(118,49)"/>
<path d="M0 0 C0 1.65 0 3.3 0 5 C-1.98 5.99 -1.98 5.99 -4 7 C-4.33 5.02 -4.66 3.04 -5 1 C-1.125 0 -1.125 0 0 0 Z " fill="#4F8E28" transform="translate(68,50)"/>
<path d="M0 0 C2.89696854 0.36982577 5.37621929 0.68810965 8 2 C8 2.66 8 3.32 8 4 C1.25 3.25 1.25 3.25 -1 1 C-0.67 0.67 -0.34 0.34 0 0 Z " fill="#539E2E" transform="translate(51,4)"/>
<path d="M0 0 C0 1.65 0 3.3 0 5 C-1.32 5.33 -2.64 5.66 -4 6 C-4 4.35 -4 2.7 -4 1 C-2 0 -2 0 0 0 Z " fill="#A78667" transform="translate(68,122)"/>
<path d="M0 0 C0.99 0.33 1.98 0.66 3 1 C3 2.32 3 3.64 3 5 C1.68 4.67 0.36 4.34 -1 4 C-1 4.99 -1 5.98 -1 7 C-1.66 7 -2.32 7 -3 7 C-3 5.68 -3 4.36 -3 3 C-2.01 3 -1.02 3 0 3 C0 2.01 0 1.02 0 0 Z " fill="#49331E" transform="translate(21,91)"/>
<path d="M0 0 C0 1.65 0 3.3 0 5 C-1.98 5.99 -1.98 5.99 -4 7 C-4 5.02 -4 3.04 -4 1 C-2 0 -2 0 0 0 Z " fill="#79635E" transform="translate(72,78)"/>
<path d="M0 0 C2.475 0.99 2.475 0.99 5 2 C4.67 3.65 4.34 5.3 4 7 C2.68 6.34 1.36 5.68 0 5 C0 3.35 0 1.7 0 0 Z " fill="#3D7023" transform="translate(56,48)"/>
<path d="M0 0 C0.8353125 0.556875 0.8353125 0.556875 1.6875 1.125 C-0.61618736 2.19152192 -2.95268187 3.18921005 -5.3125 4.125 C-5.9725 3.795 -6.6325 3.465 -7.3125 3.125 C-7.3125 2.465 -7.3125 1.805 -7.3125 1.125 C-2.88173077 -1.09038462 -2.88173077 -1.09038462 0 0 Z " fill="#488526" transform="translate(100.3125,32.875)"/>
<path d="M0 0 C0 1.65 0 3.3 0 5 C-1.98 5.99 -1.98 5.99 -4 7 C-4.1875 4.625 -4.1875 4.625 -4 2 C-1 0 -1 0 0 0 Z " fill="#835D45" transform="translate(90,109)"/>
<path d="M0 0 C1.98 0.99 1.98 0.99 4 2 C4 3.65 4 5.3 4 7 C2.68 6.34 1.36 5.68 0 5 C0 3.35 0 1.7 0 0 Z " fill="#655444" transform="translate(7,91)"/>
<path d="M0 0 C0 1.65 0 3.3 0 5 C-1.98 5.99 -1.98 5.99 -4 7 C-4.1875 4.625 -4.1875 4.625 -4 2 C-1 0 -1 0 0 0 Z " fill="#5BA82D" transform="translate(68,65)"/>
<path d="M0 0 C0 1.65 0 3.3 0 5 C-1.98 5.99 -1.98 5.99 -4 7 C-4.1875 4.625 -4.1875 4.625 -4 2 C-1 0 -1 0 0 0 Z " fill="#508C25" transform="translate(91,63)"/>
<path d="M0 0 C2.475 0.495 2.475 0.495 5 1 C4.67 2.32 4.34 3.64 4 5 C2.68 4.67 1.36 4.34 0 4 C0 2.68 0 1.36 0 0 Z " fill="#433323" transform="translate(5,57)"/>
<path d="M0 0 C0 1.65 0 3.3 0 5 C-1.98 5.99 -1.98 5.99 -4 7 C-4.1875 4.625 -4.1875 4.625 -4 2 C-1 0 -1 0 0 0 Z " fill="#B19688" transform="translate(111,97)"/>
<path d="M0 0 C0.33 2.64 0.66 5.28 1 8 C0.34 7.01 -0.32 6.02 -1 5 C-1.66 5 -2.32 5 -3 5 C-3.33 3.68 -3.66 2.36 -4 1 C-2 0 -2 0 0 0 Z " fill="#8A664C" transform="translate(93,99)"/>
<path d="M0 0 C0 1.65 0 3.3 0 5 C-1.32 5.33 -2.64 5.66 -4 6 C-3.625 3.5625 -3.625 3.5625 -3 1 C-1 0 -1 0 0 0 Z " fill="#AD9081" transform="translate(83,95)"/>
<path d="M0 0 C0 1.65 0 3.3 0 5 C-1.98 5.99 -1.98 5.99 -4 7 C-4.1875 4.625 -4.1875 4.625 -4 2 C-1 0 -1 0 0 0 Z " fill="#90694C" transform="translate(72,92)"/>
<path d="M0 0 C-0.33 1.65 -0.66 3.3 -1 5 C-1.99 5.33 -2.98 5.66 -4 6 C-4 4.35 -4 2.7 -4 1 C-2 0 -2 0 0 0 Z " fill="#89674D" transform="translate(68,90)"/>
<path d="M0 0 C-0.33 1.65 -0.66 3.3 -1 5 C-1.99 5.33 -2.98 5.66 -4 6 C-4.33 4.35 -4.66 2.7 -5 1 C-2 0 -2 0 0 0 Z " fill="#7C583D" transform="translate(72,88)"/>
<path d="M0 0 C-0.33 1.65 -0.66 3.3 -1 5 C-1.99 5.33 -2.98 5.66 -4 6 C-4 4.35 -4 2.7 -4 1 C-2 0 -2 0 0 0 Z " fill="#6D5236" transform="translate(68,85)"/>
<path d="M0 0 C0.66 0 1.32 0 2 0 C2 1.65 2 3.3 2 5 C0.68 5.33 -0.64 5.66 -2 6 C-1.125 1.125 -1.125 1.125 0 0 Z " fill="#A68366" transform="translate(120,74)"/>
<path d="M0 0 C0.66 0 1.32 0 2 0 C2 1.65 2 3.3 2 5 C0.68 5.33 -0.64 5.66 -2 6 C-1.125 1.125 -1.125 1.125 0 0 Z " fill="#5A4728" transform="translate(70,73)"/>
<path d="M0 0 C1.98 0.99 1.98 0.99 4 2 C4 3.32 4 4.64 4 6 C2.68 5.67 1.36 5.34 0 5 C0 3.35 0 1.7 0 0 Z " fill="#2B2109" transform="translate(56,73)"/>
<path d="M0 0 C0.33 0 0.66 0 1 0 C0.67 2.97 0.34 5.94 0 9 C-0.99 9.33 -1.98 9.66 -3 10 C-2.67 8.35 -2.34 6.7 -2 5 C-1.34 5 -0.68 5 0 5 C0 3.35 0 1.7 0 0 Z " fill="#7D593D" transform="translate(108,68)"/>
<path d="M0 0 C0 1.65 0 3.3 0 5 C-1.98 5.99 -1.98 5.99 -4 7 C-4.1875 4.625 -4.1875 4.625 -4 2 C-1 0 -1 0 0 0 Z " fill="#529029" transform="translate(76,71)"/>
<path d="M0 0 C-0.33 1.65 -0.66 3.3 -1 5 C-1.99 5.33 -2.98 5.66 -4 6 C-4 4.35 -4 2.7 -4 1 C-2 0 -2 0 0 0 Z " fill="#A38164" transform="translate(87,107)"/>
<path d="M0 0 C0.66 0 1.32 0 2 0 C1.67 1.65 1.34 3.3 1 5 C0.01 5.33 -0.98 5.66 -2 6 C-1.125 1.125 -1.125 1.125 0 0 Z " fill="#643E19" transform="translate(70,106)"/>
<path d="M0 0 C1.32 0.33 2.64 0.66 4 1 C4 2.65 4 4.3 4 6 C2.68 5.34 1.36 4.68 0 4 C0 2.68 0 1.36 0 0 Z " fill="#645543" transform="translate(60,104)"/>
<path d="M0 0 C0.33 1.32 0.66 2.64 1 4 C-0.98 4.99 -0.98 4.99 -3 6 C-3 4.35 -3 2.7 -3 1 C-2.01 0.67 -1.02 0.34 0 0 Z " fill="#8D776B" transform="translate(82,100)"/>
<path d="M0 0 C0 1.65 0 3.3 0 5 C-1.32 5.33 -2.64 5.66 -4 6 C-3.625 3.5625 -3.625 3.5625 -3 1 C-1 0 -1 0 0 0 Z " fill="#916A4D" transform="translate(87,93)"/>
<path d="M0 0 C1.98 0.99 1.98 0.99 4 2 C4 3.32 4 4.64 4 6 C2.68 5.67 1.36 5.34 0 5 C0 3.35 0 1.7 0 0 Z " fill="#36631B" transform="translate(60,80)"/>
<path d="M0 0 C0 1.65 0 3.3 0 5 C-1.32 5.33 -2.64 5.66 -4 6 C-3.625 3.5625 -3.625 3.5625 -3 1 C-1 0 -1 0 0 0 Z " fill="#936C55" transform="translate(108,77)"/>
<path d="M0 0 C0 1.65 0 3.3 0 5 C-1.32 5.33 -2.64 5.66 -4 6 C-3.625 3.5625 -3.625 3.5625 -3 1 C-1 0 -1 0 0 0 Z " fill="#816346" transform="translate(109,59)"/>
<path d="M0 0 C-0.33 1.65 -0.66 3.3 -1 5 C-1.99 5.33 -2.98 5.66 -4 6 C-4 4.35 -4 2.7 -4 1 C-2 0 -2 0 0 0 Z " fill="#609E32" transform="translate(113,57)"/>
<path d="M0 0 C0 1.65 0 3.3 0 5 C-1.98 5.99 -1.98 5.99 -4 7 C-3.625 4.0625 -3.625 4.0625 -3 1 C-1 0 -1 0 0 0 Z " fill="#65AE35" transform="translate(72,48)"/>
<path d="M0 0 C0.66 0 1.32 0 2 0 C1.67 1.65 1.34 3.3 1 5 C0.01 5.33 -0.98 5.66 -2 6 C-1.125 1.125 -1.125 1.125 0 0 Z " fill="#886742" transform="translate(81,109)"/>
<path d="M0 0 C0.99 0 1.98 0 3 0 C3 1.32 3 2.64 3 4 C1.68 4.33 0.36 4.66 -1 5 C-0.67 3.35 -0.34 1.7 0 0 Z " fill="#774E28" transform="translate(101,102)"/>
<path d="M0 0 C1.98 0.99 1.98 0.99 4 2 C3.67 3.32 3.34 4.64 3 6 C2.01 5.34 1.02 4.68 0 4 C0 2.68 0 1.36 0 0 Z " fill="#473119" transform="translate(56,97)"/>
<path d="M0 0 C0.33 1.32 0.66 2.64 1 4 C-0.98 4.99 -0.98 4.99 -3 6 C-2.625 3.5625 -2.625 3.5625 -2 1 C-1.34 0.67 -0.68 0.34 0 0 Z " fill="#68401C" transform="translate(100,90)"/>
<path d="M0 0 C1.32 0.33 2.64 0.66 4 1 C4 2.32 4 3.64 4 5 C2.68 4.67 1.36 4.34 0 4 C0 2.68 0 1.36 0 0 Z " fill="#635442" transform="translate(52,86)"/>
<path d="M0 0 C0.66 0 1.32 0 2 0 C1.67 1.65 1.34 3.3 1 5 C0.01 5.33 -0.98 5.66 -2 6 C-1.125 1.125 -1.125 1.125 0 0 Z " fill="#5A3714" transform="translate(89,73)"/>
<path d="M0 0 C1.98 0.99 1.98 0.99 4 2 C3.67 3.32 3.34 4.64 3 6 C2.01 5.34 1.02 4.68 0 4 C0 2.68 0 1.36 0 0 Z " fill="#61503F" transform="translate(16,71)"/>
<path d="M0 0 C0.99 0 1.98 0 3 0 C3 1.32 3 2.64 3 4 C1.68 4.33 0.36 4.66 -1 5 C-0.67 3.35 -0.34 1.7 0 0 Z " fill="#765639" transform="translate(120,57)"/>
<path d="M0 0 C1.32 0.33 2.64 0.66 4 1 C4 2.32 4 3.64 4 5 C2.68 4.67 1.36 4.34 0 4 C0 2.68 0 1.36 0 0 Z " fill="#305B1B" transform="translate(3,24)"/>
</svg>
